<svg width="92" height="92" viewBox="0 0 92 92" fill="none" xmlns="http://www.w3.org/2000/svg">
<g filter="url(#filter0_d)">
<path d="M86.3594 33.879H72.9062V30.4058C72.9062 29.5001 72.1712 28.7651 71.2656 28.7651H35.8281C34.9225 28.7651 34.1875 29.5001 34.1875 30.4058C34.1875 31.3114 34.9225 32.0464 35.8281 32.0464H69.625V44.6251C69.625 55.6747 63.7253 65.9433 54.1998 71.5313H22.7064C13.1809 65.9433 7.28125 55.6747 7.28125 44.6251V32.0464H18.2734C19.1791 32.0464 19.9141 31.3114 19.9141 30.4058C19.9141 29.5001 19.1791 28.7651 18.2734 28.7651H5.64062C4.735 28.7651 4 29.5001 4 30.4058V44.6251C4 50.8266 5.66688 56.9068 8.82016 62.2093C10.9464 65.7858 13.7059 68.9424 16.938 71.5313H5.64062C4.735 71.5313 4 72.2663 4 73.1719C4 79.1422 8.85789 84.0001 14.8281 84.0001H66.0156C71.9859 84.0001 76.8438 79.1422 76.8438 73.1719C76.8438 72.2663 76.1087 71.5313 75.2031 71.5313H59.9683C62.9427 69.1491 65.5152 66.2846 67.5644 63.0542H72.1959C80.9109 63.0542 88 55.9651 88 47.2501V35.5196C88 34.614 87.265 33.879 86.3594 33.879ZM66.0156 80.7188H14.8281C11.2302 80.7188 8.21148 78.1873 7.46172 74.8126H22.2667H54.6395H73.382C72.6323 78.1873 69.6135 80.7188 66.0156 80.7188ZM72.9062 43.7227H78.1562V47.2501C78.1562 50.5362 75.482 53.2104 72.1959 53.2104H71.8234C72.5387 50.4197 72.9062 47.5355 72.9062 44.6251V43.7227ZM84.7188 47.2501C84.7188 54.1554 79.1012 59.7729 72.1959 59.7729H69.4035C69.9269 58.7033 70.3961 57.6073 70.8046 56.4917H72.1959C77.2916 56.4917 81.4375 52.3458 81.4375 47.2501V42.0821C81.4375 41.1765 80.7025 40.4415 79.7969 40.4415H72.9062V37.1602H84.7188V47.2501Z" fill="#FF699F"/>
<path d="M37.4523 11.1233C39.0896 13.179 39.0929 16.0517 37.4588 18.1107L36.5844 19.2132C36.0217 19.9236 36.1398 20.9555 36.8502 21.5183C37.152 21.7578 37.5113 21.8743 37.869 21.8743C38.353 21.8743 38.832 21.661 39.1552 21.2541L40.0297 20.1516C42.6186 16.8901 42.6153 12.3373 40.0199 9.07904L39.1667 8.00771C37.9133 6.43435 37.9117 4.23591 39.1618 2.66091C39.7245 1.95052 39.6064 0.918569 38.896 0.355835C38.1856 -0.2069 37.1537 -0.0887745 36.5909 0.621616C34.3859 3.40084 34.3892 7.27927 36.5992 10.0536L37.4523 11.1233Z" fill="#FF699F"/>
<path d="M46.5465 14.813C48.1839 16.8687 48.1855 19.7431 46.5531 21.8021L45.6786 22.9046C45.1159 23.615 45.234 24.6469 45.9444 25.2097C46.2463 25.4492 46.6056 25.5657 46.9632 25.5657C47.4472 25.5657 47.9263 25.3524 48.2495 24.9455L49.1239 23.843C51.7128 20.5815 51.7096 16.0287 49.1141 12.7704L48.261 11.6991C47.0075 10.1258 47.0059 7.92732 48.256 6.35232C48.8188 5.64193 48.7007 4.60998 47.9903 4.04724C47.2799 3.48451 46.2479 3.60263 45.6852 4.31302C43.4802 7.09224 43.4835 10.9707 45.6934 13.745L46.5465 14.813Z" fill="#FF699F"/>
<path d="M28.36 14.8132C29.9973 16.8689 29.999 19.7433 28.3666 21.8006L27.4921 22.9031C26.9294 23.6135 27.0475 24.6455 27.7579 25.2082C28.0598 25.4477 28.4191 25.5642 28.7767 25.5642C29.2607 25.5642 29.7398 25.3509 30.063 24.9441L30.9374 23.8416C33.5263 20.58 33.523 16.0273 30.9276 12.769L30.0744 11.6977C28.821 10.1243 28.8194 7.92585 30.0695 6.35085C30.6323 5.64046 30.5141 4.60851 29.8037 4.04578C29.0934 3.48304 28.0614 3.60117 27.4987 4.31156C25.2937 7.09078 25.2969 10.9692 27.5069 13.7435L28.36 14.8132Z" fill="#FF699F"/>
<path d="M27.4956 28.7651C27.0641 28.7651 26.6408 28.9407 26.3357 29.2458C26.0305 29.5526 25.855 29.9743 25.855 30.4058C25.855 30.8372 26.0305 31.2605 26.3357 31.5673C26.6408 31.8725 27.0641 32.0464 27.4956 32.0464C27.9271 32.0464 28.3504 31.8725 28.6555 31.5673C28.9623 31.2605 29.1362 30.8389 29.1362 30.4058C29.1362 29.9743 28.9623 29.551 28.6555 29.2458C28.3504 28.9407 27.9271 28.7651 27.4956 28.7651Z" fill="#FF699F"/>
<path d="M57.304 63.3544C62.2144 58.3997 65.0313 51.573 65.0313 44.625C65.0313 43.7194 64.2963 42.9844 63.3907 42.9844C62.4851 42.9844 61.7501 43.7194 61.7501 44.625C61.7501 50.715 59.2793 56.7 54.9727 61.0444C54.3345 61.6875 54.3394 62.726 54.9825 63.3642C55.3024 63.6809 55.7191 63.84 56.1375 63.84C56.5608 63.84 56.9824 63.6776 57.304 63.3544Z" fill="#FF699F"/>
<path d="M50.7511 67.9661C51.0234 67.9661 51.3007 67.8972 51.555 67.7544L51.5927 67.7331C52.3819 67.2885 52.6608 66.2877 52.2162 65.4986C51.7716 64.7094 50.7708 64.4305 49.9816 64.8751L49.9439 64.8965C49.1547 65.3411 48.8758 66.3419 49.3204 67.131C49.6223 67.6658 50.1769 67.9661 50.7511 67.9661Z" fill="#FF699F"/>
</g>
<defs>
<filter id="filter0_d" x="0" y="0.000488281" width="92" height="91.9996" filterUnits="userSpaceOnUse" color-interpolation-filters="sRGB">
<feFlood flood-opacity="0" result="BackgroundImageFix"/>
<feColorMatrix in="SourceAlpha" type="matrix" values="0 0 0 0 0 0 0 0 0 0 0 0 0 0 0 0 0 0 127 0"/>
<feOffset dy="4"/>
<feGaussianBlur stdDeviation="2"/>
<feColorMatrix type="matrix" values="0 0 0 0 0 0 0 0 0 0 0 0 0 0 0 0 0 0 0.25 0"/>
<feBlend mode="normal" in2="BackgroundImageFix" result="effect1_dropShadow"/>
<feBlend mode="normal" in="SourceGraphic" in2="effect1_dropShadow" result="shape"/>
</filter>
</defs>
</svg>
